<?xml version="1.0" encoding="utf-8"?>
<!-- Generator: Adobe Illustrator 25.0.0, SVG Export Plug-In . SVG Version: 6.00 Build 0)  -->
<svg version="1.1" xmlns="http://www.w3.org/2000/svg" xmlns:xlink="http://www.w3.org/1999/xlink" x="0px" y="0px"
	 viewBox="0 0 1440 900" style="enable-background:new 0 0 1440 900;" xml:space="preserve">
<style type="text/css">
	.st0{fill:#E0007A;}
</style>
<g id="Capa_1">
</g>
<g id="Capa_2">
	<g>
		<path d="M669.46,392.99c-5.69-3.41-11.84-7.06-17.96-10.78c-17.95-10.91-35.84-21.92-53.86-32.72c-3.84-2.3-5.68-4.85-5.67-9.64
			c0.2-51.61,0.13-103.23,0.18-154.84c0-2.03,0.33-4.05,0.71-8.31c6.18,7.97,11.13,14.19,15.91,20.55
			c18.65,24.78,42.57,51.8,60.45,77.12"/>
		<path d="M591.93,369.53c21,13.37,40.26,26.97,60.79,38.26c14.01,7.7,18.72,17.82,19.78,33.17c2.58,37.34,6.98,74.56,10.63,111.82
			c0.25,2.59,0.34,5.2,0.64,9.9c-2.89-2.68-4.67-3.98-6.02-5.64c-25.51-31.24-50.84-62.62-76.53-93.71
			c-6.79-8.21-10.26-17.1-10.14-27.67c0.22-19.7,0.22-39.39,0.35-59.09C591.42,374.71,591.68,372.84,591.93,369.53z"/>
		<path d="M588.28,483.43c-12.59-13.31-17.86-28.1-17.67-46.2c0.48-47.81,0.18-95.62-0.11-143.43c-0.02-3.05-1.65-7.31-3.98-8.96
			c-29.01-20.52-58.29-40.67-87.52-60.88c-1.45-1-3.13-1.67-6.51-3.43c0.48,5.36,0.76,8.65,1.06,11.93c2.4,26.06,5,52.1,7.09,78.19
			c0.51,6.36,0.21,12.98-5.36,17.95c-25.25,22.53-50.37,45.21-75.65,67.72c-7.17,6.39-14.65,12.43-22.08,18.52
			c-3.44,2.82-3.73,5.5-1.12,9.21c13.37,19.07,26.67,38.2,39.76,57.46c4.86,7.15,10.99,9.19,19.26,7.35
			c19.68-4.38,39.39-8.69,59.21-12.41c4.58-0.86,10.18-0.44,14.38,1.45c36.97,16.71,73.72,33.9,110.55,50.92
			c2.27,1.05,4.69,1.77,7.03,2.64C614.56,514.46,602.23,498.18,588.28,483.43z M483.63,394.77c-1.05,0.84-3.74,0.57-5.17-0.16
			c-5.91-3.04-11.63-6.46-19.41-10.86c19.15-5.38,36.22-10.18,53.29-14.99c0.31,0.5,0.61,1,0.92,1.51
			C503.42,378.47,493.64,386.76,483.63,394.77z"/>
		<path d="M814.7,531.46c2.35-0.87,4.77-1.59,7.03-2.64c36.83-17.01,73.59-34.2,110.55-50.92c4.2-1.9,9.8-2.31,14.38-1.45
			c19.82,3.72,39.52,8.03,59.21,12.41c8.27,1.84,14.4-0.21,19.26-7.35c13.09-19.26,26.39-38.39,39.76-57.46
			c2.61-3.72,2.32-6.39-1.12-9.21c-7.43-6.09-14.91-12.13-22.08-18.52c-25.27-22.51-50.39-45.19-75.65-67.72
			c-5.57-4.97-5.87-11.59-5.36-17.95c2.09-26.08,4.69-52.13,7.09-78.19c0.3-3.29,0.58-6.58,1.06-11.93
			c-3.37,1.76-5.06,2.43-6.51,3.43c-29.23,20.21-58.51,40.36-87.52,60.88c-2.33,1.65-3.96,5.9-3.98,8.96
			c-0.28,47.81-0.59,95.63-0.11,143.43c0.18,18.11-5.08,32.89-17.67,46.2C839.11,498.18,826.78,514.46,814.7,531.46z M928.08,370.26
			c0.31-0.5,0.61-1,0.92-1.51c17.07,4.8,34.14,9.6,53.29,14.99c-7.78,4.41-13.5,7.82-19.41,10.86c-1.43,0.73-4.12,1-5.17,0.16
			C947.7,386.76,937.92,378.47,928.08,370.26z"/>
		<path d="M771.63,392.99c5.69-3.41,11.84-7.06,17.96-10.78c17.95-10.91,35.84-21.92,53.86-32.72c3.84-2.3,5.68-4.85,5.67-9.64
			c-0.2-51.61-0.13-103.23-0.18-154.84c0-2.03-0.33-4.05-0.71-8.31c-6.18,7.97-11.13,14.19-15.91,20.55
			c-18.65,24.78-42.57,51.8-60.45,77.12"/>
		<path d="M849.16,369.53c-21,13.37-40.26,26.97-60.79,38.26c-14.01,7.7-18.72,17.82-19.78,33.17
			c-2.58,37.34-6.98,74.56-10.63,111.82c-0.25,2.59-0.34,5.2-0.64,9.9c2.89-2.68,4.67-3.98,6.02-5.64
			c25.51-31.24,50.84-62.62,76.53-93.71c6.79-8.21,10.26-17.1,10.14-27.67c-0.22-19.7-0.22-39.39-0.35-59.09
			C849.67,374.71,849.41,372.84,849.16,369.53z"/>
		<g>
			<polygon class="st0" points="669.52,392.99 687.76,401.95 702.61,503.94 720.58,507.45 720.58,260.27 669.23,274.37 			"/>
			<polygon class="st0" points="771.64,392.99 753.41,401.95 738.56,503.94 720.58,507.45 720.58,260.27 771.94,274.37 			"/>
		</g>
	</g>
	<g>
		<path class="st0" d="M403.47,695.5c-5.12-1.57-9.61-4.09-13.47-7.57c-3.86-3.48-6.89-8.06-9.09-13.74
			c-2.21-5.68-3.31-12.64-3.31-20.87c0-8.23,1.1-15.18,3.31-20.87c2.21-5.68,5.24-10.26,9.09-13.74c3.85-3.48,8.34-6,13.47-7.57
			c5.12-1.57,10.6-2.35,16.43-2.35h36.66v15.27h-33.84c-3.48,0-6.77,0.47-9.87,1.4c-3.1,0.93-5.81,2.53-8.11,4.77
			c-2.3,2.25-4.11,5.24-5.43,8.97c-1.32,3.73-1.97,8.44-1.97,14.12c0,5.68,0.66,10.39,1.97,14.12c1.31,3.73,3.12,6.72,5.43,8.97
			c2.3,2.25,5.01,3.84,8.11,4.77c3.1,0.93,6.39,1.4,9.87,1.4h33.84v15.27h-36.66C414.06,697.85,408.59,697.07,403.47,695.5z"/>
		<path class="st0" d="M493.71,695.5c-5.12-1.57-9.61-4.09-13.47-7.57c-3.86-3.48-6.89-8.06-9.09-13.74
			c-2.21-5.68-3.31-12.64-3.31-20.87c0-8.23,1.1-15.18,3.31-20.87c2.21-5.68,5.24-10.26,9.09-13.74c3.85-3.48,8.34-6,13.47-7.57
			c5.12-1.57,10.6-2.35,16.43-2.35h36.66v15.27h-33.84c-3.1,0-6.02,0.36-8.74,1.08c-2.73,0.72-5.19,1.91-7.4,3.56
			c-2.21,1.65-4.09,3.86-5.64,6.62c-1.55,2.76-2.61,6.21-3.17,10.37h58.8v15.27H488c0.56,4.16,1.62,7.61,3.17,10.37
			c1.55,2.76,3.43,4.96,5.64,6.62c2.21,1.65,4.67,2.84,7.4,3.56c2.73,0.72,5.64,1.08,8.74,1.08h33.84v15.27h-36.66
			C504.3,697.85,498.83,697.07,493.71,695.5z"/>
		<path class="st0" d="M563.71,608.79h58.51c4.32,0,8.41,0.47,12.27,1.4c3.85,0.93,7.24,2.44,10.15,4.52
			c2.91,2.08,5.19,4.83,6.84,8.27c1.64,3.44,2.47,7.61,2.47,12.53c0,4.33-0.56,8.08-1.69,11.26c-1.13,3.18-2.7,5.87-4.72,8.08
			c-2.02,2.21-4.42,3.94-7.19,5.22c-2.77,1.27-5.76,2.21-8.95,2.8l22.42,34.99h-22.84L610.1,663.5h-26.65v34.35h-19.74V608.79z
			 M622.23,648.23c3.29,0,6.11-0.91,8.46-2.74c2.35-1.82,3.52-5.15,3.52-9.99c0-4.24-1.18-7.21-3.52-8.91
			c-2.35-1.7-5.17-2.54-8.46-2.54h-38.77v24.17H622.23z"/>
		<path class="st0" d="M668.75,608.79h57.1c4.32,0,8.41,0.4,12.27,1.21c3.85,0.81,7.24,2.16,10.15,4.07
			c2.91,1.91,5.19,4.39,6.84,7.44c1.64,3.05,2.47,6.87,2.47,11.45c0,4.92-0.94,8.97-2.82,12.15c-1.88,3.18-4.47,5.71-7.75,7.57
			c4.04,1.78,7.28,4.35,9.73,7.7c2.44,3.35,3.67,7.78,3.67,13.3c0,4.58-0.82,8.4-2.47,11.45c-1.65,3.05-3.93,5.54-6.84,7.44
			c-2.92,1.91-6.3,3.27-10.15,4.07c-3.86,0.81-7.94,1.21-12.27,1.21h-59.92V608.79z M725.86,645.68c3.29,0,6.11-0.78,8.46-2.35
			c2.35-1.57,3.53-4.39,3.53-8.46c0-3.99-1.18-6.79-3.53-8.4c-2.35-1.61-5.17-2.42-8.46-2.42h-37.37v21.63H725.86z M728.68,682.58
			c3.29,0,6.11-0.78,8.46-2.35c2.35-1.57,3.53-4.39,3.53-8.46c0-3.99-1.18-6.79-3.53-8.4c-2.35-1.61-5.17-2.42-8.46-2.42h-40.18
			v21.63H728.68z"/>
		<path class="st0" d="M795.44,695.5c-5.12-1.57-9.61-4.09-13.47-7.57c-3.86-3.48-6.89-8.06-9.09-13.74
			c-2.21-5.68-3.31-12.64-3.31-20.87c0-8.23,1.1-15.18,3.31-20.87c2.21-5.68,5.24-10.26,9.09-13.74c3.85-3.48,8.34-6,13.47-7.57
			c5.12-1.57,10.6-2.35,16.43-2.35h36.66v15.27h-33.84c-3.1,0-6.02,0.36-8.74,1.08c-2.73,0.72-5.2,1.91-7.4,3.56
			c-2.21,1.65-4.09,3.86-5.64,6.62c-1.55,2.76-2.61,6.21-3.17,10.37h58.8v15.27h-58.8c0.56,4.16,1.62,7.61,3.17,10.37
			c1.55,2.76,3.43,4.96,5.64,6.62c2.21,1.65,4.67,2.84,7.4,3.56c2.73,0.72,5.64,1.08,8.74,1.08h33.84v15.27h-36.66
			C806.04,697.85,800.56,697.07,795.44,695.5z"/>
		<path class="st0" d="M865.45,608.79h58.51c4.32,0,8.41,0.47,12.27,1.4c3.85,0.93,7.24,2.44,10.15,4.52
			c2.91,2.08,5.19,4.83,6.84,8.27c1.64,3.44,2.47,7.61,2.47,12.53c0,4.33-0.56,8.08-1.69,11.26c-1.13,3.18-2.7,5.87-4.72,8.08
			c-2.02,2.21-4.42,3.94-7.19,5.22c-2.77,1.27-5.76,2.21-8.95,2.8l22.42,34.99H932.7l-20.87-34.35h-26.65v34.35h-19.74V608.79z
			 M923.96,648.23c3.29,0,6.11-0.91,8.46-2.74c2.35-1.82,3.53-5.15,3.53-9.99c0-4.24-1.18-7.21-3.53-8.91
			c-2.35-1.7-5.17-2.54-8.46-2.54h-38.77v24.17H923.96z"/>
		<path class="st0" d="M966.26,653.32c0-8.57,1.25-15.82,3.74-21.76c2.49-5.94,5.9-10.73,10.22-14.38c4.32-3.65,9.4-6.28,15.23-7.89
			c5.83-1.61,12.08-2.42,18.75-2.42c6.49,0,12.64,0.81,18.47,2.42c5.83,1.61,10.93,4.24,15.3,7.89c4.37,3.65,7.83,8.44,10.36,14.38
			c2.54,5.94,3.81,13.19,3.81,21.76c0,8.57-1.27,15.82-3.81,21.76c-2.54,5.94-5.99,10.73-10.36,14.38
			c-4.37,3.65-9.47,6.28-15.3,7.89c-5.83,1.61-11.98,2.42-18.47,2.42c-6.67,0-12.92-0.81-18.75-2.42
			c-5.83-1.61-10.91-4.24-15.23-7.89c-4.32-3.65-7.73-8.44-10.22-14.38C967.5,669.14,966.26,661.89,966.26,653.32z M1014.2,684.49
			c3.85,0,7.5-0.49,10.93-1.46c3.43-0.97,6.42-2.65,8.95-5.03c2.54-2.37,4.56-5.58,6.06-9.61c1.5-4.03,2.26-9.05,2.26-15.08
			c0-6.02-0.75-11.05-2.26-15.08c-1.5-4.03-3.53-7.23-6.06-9.61c-2.54-2.37-5.52-4.05-8.95-5.03c-3.43-0.97-7.07-1.46-10.93-1.46
			c-3.95,0-7.64,0.49-11.07,1.46c-3.43,0.98-6.42,2.65-8.95,5.03c-2.54,2.38-4.54,5.58-5.99,9.61c-1.46,4.03-2.19,9.06-2.19,15.08
			c0,6.02,0.73,11.05,2.19,15.08c1.46,4.03,3.45,7.23,5.99,9.61c2.54,2.38,5.52,4.05,8.95,5.03
			C1006.56,684,1010.25,684.49,1014.2,684.49z"/>
	</g>
</g>
</svg>
